Coordinates
version=1
nRows=32
nColumns=12
inDegrees=yes

Units are S.I. units (second, meters, Newtons, ...)
Angles are in degrees

endheader
time	SC_y	SC_z	SC_x	AC_y	AC_z	AC_x	GH_y	GH_z	GH_yy	EL_x	PS_y
       0.0              -15.17          6.709          82.66           33.6         -2.054         -6.226           29.4          60.36         -158.0           76.1          33.55
   0.01602              -15.18          6.709          82.65           33.6         -2.054         -6.224          29.38          60.36         -158.0           76.1          33.55
   0.03204              -15.18          6.709          82.65           33.6         -2.054         -6.221          29.36          60.36         -157.9           76.1          33.56
   0.04806              -15.19          6.709          82.65          33.61         -2.054         -6.218          29.34          60.36         -157.9           76.1          33.56
   0.06408              -15.19          6.708          82.65          33.61         -2.053         -6.215          29.32          60.36         -157.8           76.1          33.57
    0.0801               -15.2          6.708          82.64          33.61         -2.053         -6.211           29.3          60.36         -157.8           76.1          33.57
   0.09612              -15.21          6.707          82.64          33.62         -2.053         -6.208          29.27          60.36         -157.8           76.1          33.58
    0.1121              -15.21          6.707          82.64          33.62         -2.053         -6.204          29.25          60.36         -157.7           76.1          33.59
    0.1282              -15.22          6.707          82.63          33.63         -2.053           -6.2          29.22          60.36         -157.6          76.09          33.59
    0.1442              -15.23          6.706          82.63          33.63         -2.052         -6.196          29.19          60.36         -157.6          76.09           33.6
    0.1602              -15.24          6.706          82.62          33.64         -2.052         -6.191          29.15          60.36         -157.5          76.09          33.61
    0.1762              -15.25          6.705          82.62          33.64         -2.052         -6.186          29.12          60.36         -157.4          76.09          33.62
    0.1922              -15.26          6.705          82.61          33.65         -2.052         -6.181          29.08          60.36         -157.4          76.09          33.63
    0.2083              -15.27          6.704          82.61          33.66         -2.051         -6.175          29.04          60.36         -157.3          76.09          33.64
    0.2243              -15.28          6.703           82.6          33.67         -2.051         -6.168          28.99          60.37         -157.2          76.08          33.65
    0.2403              -15.29          6.702           82.6          33.67          -2.05         -6.162          28.95          60.37         -157.1          76.08          33.66
    0.2563              -15.31          6.702          82.59          33.68          -2.05         -6.154          28.89          60.37         -157.0          76.08          33.68
    0.2723              -15.32          6.701          82.58          33.69          -2.05         -6.146          28.84          60.37         -156.9          76.07          33.69
    0.2884              -15.34            6.7          82.57           33.7         -2.049         -6.137          28.77          60.37         -156.8          76.07          33.71
    0.3044              -15.35          6.699          82.56          33.71         -2.049         -6.127           28.7          60.37         -156.6          76.07          33.72
    0.3204              -15.37          6.698          82.55          33.73         -2.048         -6.117          28.63          60.37         -156.5          76.06          33.74
    0.3364               -15.4          6.696          82.54          33.74         -2.047         -6.105          28.55          60.37         -156.3          76.06          33.76
    0.3524              -15.42          6.695          82.53          33.76         -2.047         -6.092          28.46          60.37         -156.1          76.06          33.79
    0.3685              -15.45          6.693          82.51          33.77         -2.046         -6.078          28.35          60.37         -155.9          76.05          33.81
    0.3845              -15.47          6.692           82.5          33.79         -2.045         -6.062          28.24          60.37         -155.7          76.04          33.84
    0.4005              -15.51           6.69          82.48          33.81         -2.044         -6.044          28.12          60.37         -155.5          76.04          33.87
    0.4165              -15.54          6.688          82.46          33.84         -2.043         -6.024          27.97          60.37         -155.2          76.03          33.91
    0.4325              -15.58          6.685          82.44          33.86         -2.042         -6.001          27.82          60.37         -154.9          76.02          33.95
    0.4486              -15.63          6.682          82.42          33.89          -2.04         -5.976          27.64          60.37         -154.5          76.01           34.0
    0.4646              -15.68          6.679          82.39          33.93         -2.039         -5.947          27.43          60.38         -154.1           76.0          34.05
    0.4806              -15.74          6.676          82.36          33.97         -2.037         -5.914           27.2          60.38         -153.6          75.99          34.11
    0.4966              -15.81          6.672          82.32          34.01         -2.035         -5.876          26.94          60.38         -153.1          75.98          34.17
